<svg xmlns="http://www.w3.org/2000/svg" version="1.1" xmlns:xlink="http://www.w3.org/1999/xlink" xmlns:svgjs="http://svgjs.dev/svgjs" width="1440" height="560" preserveAspectRatio="none" viewBox="0 0 1440 560"><g mask="url(&quot;#SvgjsMask1305&quot;)" fill="none"><rect width="1440" height="560" x="0" y="0" fill="url(&quot;#SvgjsLinearGradient1306&quot;)"></rect><path d="M -278.4199940150675,261 C -206.42,297.4 -62.42,441.8 81.58000598493247,443 C 225.58,444.2 297.58,292 441.5800059849325,267 C 585.58,242 657.58,347 801.5800059849324,318 C 945.58,289 1017.58,124 1161.5800059849325,122 C 1305.58,120 1465.9,296.6 1521.5800059849325,308 C 1577.26,319.4 1456.32,204.8 1440,179" stroke="rgba(126, 34, 206, 1)" stroke-width="2"></path><path d="M -1.8567532617564098,245 C 70.14,258.4 214.14,342.6 358.1432467382436,312 C 502.14,281.4 574.14,70.6 718.1432467382435,92 C 862.14,113.4 934.14,397.4 1078.1432467382435,419 C 1222.14,440.6 1294.14,216.4 1438.1432467382435,200 C 1582.14,183.6 1797.77,347.8 1798.1432467382435,337 C 1798.51,326.2 1511.63,184.2 1440,146" stroke="rgba(126, 34, 206, 1)" stroke-width="2"></path><path d="M -250.24111169904296,137 C -178.24,176.6 -34.24,323 109.75888830095705,335 C 253.76,347 325.76,178.2 469.75888830095704,197 C 613.76,215.8 685.76,412.6 829.7588883009571,429 C 973.76,445.4 1045.76,303.6 1189.758888300957,279 C 1333.76,254.4 1499.71,326.6 1549.758888300957,306 C 1599.81,285.4 1461.95,202 1440,176" stroke="rgba(126, 34, 206, 1)" stroke-width="2"></path><path d="M -135.94775123091136,98 C -63.95,169.8 80.05,440.2 224.05224876908864,457 C 368.05,473.8 440.05,174.8 584.0522487690887,182 C 728.05,189.2 800.05,485.8 944.0522487690887,493 C 1088.05,500.2 1160.05,235.8 1304.0522487690887,218 C 1448.05,200.2 1636.86,429 1664.0522487690887,404 C 1691.24,379 1484.81,155.2 1440,93" stroke="rgba(126, 34, 206, 1)" stroke-width="2"></path></g><defs><mask id="SvgjsMask1305"><rect width="1440" height="560" fill="#ffffff"></rect></mask><linearGradient x1="15.28%" y1="-39.29%" x2="84.72%" y2="139.29%" gradientUnits="userSpaceOnUse" id="SvgjsLinearGradient1306"><stop stop-color="#0e2a47" offset="0"></stop><stop stop-color="rgba(0, 67, 158, 0)" offset="0"></stop></linearGradient></defs></svg>