<svg xmlns="http://www.w3.org/2000/svg" version="1.1" xmlns:xlink="http://www.w3.org/1999/xlink" xmlns:svgjs="http://svgjs.dev/svgjs" width="2000" height="560" preserveAspectRatio="none" viewBox="0 0 2000 560"><g mask="url(&quot;#SvgjsMask1363&quot;)" fill="none"><rect width="2000" height="560" x="0" y="0" fill="url(&quot;#SvgjsLinearGradient1364&quot;)"></rect><path d="M -964.5171974987607,555 C -864.52,471 -664.52,136.4 -464.51719749876065,135 C -264.52,133.6 -164.52,535 35.48280250123935,548 C 235.48,561 335.48,213.2 535.4828025012393,200 C 735.48,186.8 835.48,479.6 1035.4828025012393,482 C 1235.48,484.4 1342.58,245 1535.4828025012393,212 C 1728.39,179 1907.1,296 2000,317" stroke="rgba(126, 34, 206, 1)" stroke-width="2"></path><path d="M -754.920301079076,276 C -654.92,314 -454.92,479 -254.92030107907604,466 C -54.92,453 45.08,242.2 245.07969892092396,211 C 445.08,179.8 545.08,349.6 745.079698920924,310 C 945.08,270.4 1045.08,-0.6 1245.0796989209239,13 C 1445.08,26.6 1594.1,365.4 1745.0796989209239,378 C 1896.06,390.6 1949.02,136.4 2000,76" stroke="rgba(126, 34, 206, 1)" stroke-width="2"></path><path d="M -750.4444342214318,343 C -650.44,286 -450.44,31.6 -250.4444342214318,58 C -50.44,84.4 49.56,475.4 249.5555657785682,475 C 449.56,474.6 549.56,63.8 749.5555657785682,56 C 949.56,48.2 1049.56,445.4 1249.5555657785683,436 C 1449.56,426.6 1599.47,24.2 1749.5555657785683,9 C 1899.64,-6.2 1949.91,289.8 2000,360" stroke="rgba(126, 34, 206, 1)" stroke-width="2"></path><path d="M -482.8866328287108,296 C -382.89,237 -182.89,-31.4 17.113367171289195,1 C 217.11,33.4 317.11,452 517.1133671712892,458 C 717.11,464 817.11,32.4 1017.1133671712892,31 C 1217.11,29.6 1317.11,411 1517.1133671712892,451 C 1717.11,491 1920.54,251.8 2017.1133671712892,231 C 2113.69,210.2 2003.42,323.8 2000,347" stroke="rgba(126, 34, 206, 1)" stroke-width="2"></path></g><defs><mask id="SvgjsMask1363"><rect width="2000" height="560" fill="#ffffff"></rect></mask><linearGradient x1="18%" y1="-64.29%" x2="82%" y2="164.29%" gradientUnits="userSpaceOnUse" id="SvgjsLinearGradient1364"><stop stop-color="#0e2a47" offset="0"></stop><stop stop-color="rgba(0, 67, 158, 0)" offset="0"></stop></linearGradient></defs></svg>